<svg xmlns="http://www.w3.org/2000/svg" width="1600" height="500" viewBox="0 0 1600 500" role="img" aria-labelledby="title desc">
  <title id="title">Bookshelf banner</title>
  <desc id="desc">A stylized bookshelf illustration for page banners.</desc>
  <defs>
    <linearGradient id="bg" x1="0%" y1="0%" x2="100%" y2="100%">
      <stop offset="0%" stop-color="#293d59"/>
      <stop offset="100%" stop-color="#172638"/>
    </linearGradient>
    <linearGradient id="shelf" x1="0%" y1="0%" x2="0%" y2="100%">
      <stop offset="0%" stop-color="#8f623d"/>
      <stop offset="100%" stop-color="#6f4c2f"/>
    </linearGradient>
  </defs>
  <rect width="1600" height="500" fill="url(#bg)"/>
  <rect x="120" y="110" width="1360" height="18" rx="6" fill="url(#shelf)"/>
  <rect x="120" y="245" width="1360" height="18" rx="6" fill="url(#shelf)"/>
  <rect x="120" y="380" width="1360" height="18" rx="6" fill="url(#shelf)"/>
  <g opacity="0.95">
    <rect x="170" y="42" width="70" height="68" fill="#f6c667"/>
    <rect x="255" y="28" width="62" height="82" fill="#e67e22"/>
    <rect x="332" y="35" width="52" height="75" fill="#d35400"/>
    <rect x="402" y="18" width="62" height="92" fill="#16a085"/>
    <rect x="482" y="32" width="48" height="78" fill="#3498db"/>
    <rect x="548" y="22" width="64" height="88" fill="#9b59b6"/>
    <rect x="1080" y="26" width="64" height="84" fill="#f39c12"/>
    <rect x="1160" y="18" width="52" height="92" fill="#2ecc71"/>
    <rect x="1228" y="28" width="62" height="82" fill="#c0392b"/>
    <rect x="1306" y="34" width="58" height="76" fill="#8e44ad"/>
  </g>
  <g opacity="0.95">
    <rect x="185" y="174" width="64" height="71" fill="#2ecc71"/>
    <rect x="267" y="162" width="56" height="83" fill="#f1c40f"/>
    <rect x="338" y="170" width="72" height="75" fill="#e74c3c"/>
    <rect x="430" y="150" width="56" height="95" fill="#2980b9"/>
    <rect x="500" y="165" width="48" height="80" fill="#1abc9c"/>
    <rect x="565" y="155" width="62" height="90" fill="#d35400"/>
    <rect x="1020" y="170" width="58" height="75" fill="#16a085"/>
    <rect x="1095" y="158" width="70" height="87" fill="#e67e22"/>
    <rect x="1180" y="150" width="54" height="95" fill="#9b59b6"/>
    <rect x="1250" y="166" width="60" height="79" fill="#3498db"/>
  </g>
  <g opacity="0.95">
    <rect x="200" y="315" width="58" height="65" fill="#f1c40f"/>
    <rect x="274" y="300" width="64" height="80" fill="#c0392b"/>
    <rect x="355" y="308" width="52" height="72" fill="#2980b9"/>
    <rect x="422" y="286" width="70" height="94" fill="#1abc9c"/>
    <rect x="507" y="297" width="58" height="83" fill="#8e44ad"/>
    <rect x="582" y="311" width="48" height="69" fill="#f39c12"/>
    <rect x="1005" y="306" width="60" height="74" fill="#2ecc71"/>
    <rect x="1081" y="288" width="72" height="92" fill="#d35400"/>
    <rect x="1169" y="300" width="52" height="80" fill="#3498db"/>
    <rect x="1238" y="312" width="62" height="68" fill="#e74c3c"/>
  </g>
  <text x="800" y="235" text-anchor="middle" font-family="Georgia, serif" font-size="64" fill="#f5f0e4">THE GOOD READER</text>
  <text x="800" y="282" text-anchor="middle" font-family="Arial, sans-serif" font-size="28" fill="#dfe8f2">Discover your next favorite book</text>
</svg>
