<svg xmlns="http://www.w3.org/2000/svg" width="64" height="64" viewBox="0 0 64 64" role="img" aria-labelledby="title">
  <title id="title">Memphis Shelf favicon</title>
  <rect width="64" height="64" rx="11" fill="#ffd84f"/>
  <rect x="4" y="4" width="56" height="56" rx="9" fill="none" stroke="#111111" stroke-width="3"/>
  <circle cx="16" cy="16" r="4" fill="#00d8ff" stroke="#111111" stroke-width="2"/>
  <path d="M14 24c0-3 2-5 5-5h11c5 0 9 4 9 9v20h-12c-3 0-6 3-6 6V29c0-3-2-5-5-5h-2z" fill="#00d8ff" stroke="#111111" stroke-width="2"/>
  <path d="M50 24c0-3-2-5-5-5H34c-5 0-9 4-9 9v20h12c3 0 6 3 6 6V29c0-3 2-5 5-5h2z" fill="#ff4fa6" stroke="#111111" stroke-width="2"/>
  <path d="M32 29v25" stroke="#111111" stroke-width="2"/>
</svg>
