<svg xmlns="http://www.w3.org/2000/svg" width="256" height="256" viewBox="0 0 256 256" role="img" aria-labelledby="title desc">
  <title id="title">Memphis Shelf logo</title>
  <desc id="desc">A playful geometric book icon inspired by Memphis design.</desc>
  <rect width="256" height="256" rx="34" fill="#ffd84f"/>
  <rect x="16" y="16" width="224" height="224" rx="28" fill="none" stroke="#111111" stroke-width="8"/>
  <circle cx="56" cy="58" r="14" fill="#00d8ff" stroke="#111111" stroke-width="5"/>
  <rect x="178" y="38" width="44" height="16" rx="6" fill="#ff4fa6" stroke="#111111" stroke-width="4"/>
  <rect x="176" y="60" width="52" height="16" rx="6" fill="#7f4bff" stroke="#111111" stroke-width="4"/>
  <path d="M52 168l32-24 32 24 32-24 32 24" fill="none" stroke="#111111" stroke-width="8" stroke-linecap="round" stroke-linejoin="round"/>
  <path d="M64 86c0-8 6-14 14-14h46c16 0 30 13 30 30v72h-50c-10 0-19 8-19 19v-93c0-8-6-14-14-14h-7z" fill="#00d8ff" stroke="#111111" stroke-width="6" stroke-linejoin="round"/>
  <path d="M192 86c0-8-6-14-14-14h-46c-16 0-30 13-30 30v72h50c10 0 19 8 19 19v-93c0-8 6-14 14-14h7z" fill="#ff4fa6" stroke="#111111" stroke-width="6" stroke-linejoin="round"/>
  <path d="M128 100v94" stroke="#111111" stroke-width="6" stroke-linecap="round"/>
</svg>
