<svg xmlns="http://www.w3.org/2000/svg" width="240" height="240" viewBox="0 0 240 240" role="img" aria-labelledby="title desc">
  <title id="title">The Good Reader logo</title>
  <desc id="desc">An open book icon on a dark blue background.</desc>
  <defs>
    <linearGradient id="bg" x1="0%" y1="0%" x2="100%" y2="100%">
      <stop offset="0%" stop-color="#1b2a4a"/>
      <stop offset="100%" stop-color="#132033"/>
    </linearGradient>
  </defs>
  <rect width="240" height="240" rx="24" fill="url(#bg)"/>
  <path d="M40 74c0-9 7-16 16-16h58c18 0 33 15 33 33v90H86c-12 0-23 10-23 22V90c0-9-7-16-16-16h-7z" fill="#f6c667"/>
  <path d="M200 74c0-9-7-16-16-16h-58c-18 0-33 15-33 33v90h61c12 0 23 10 23 22V90c0-9 7-16 16-16h7z" fill="#f5f0e4"/>
  <path d="M120 92v112" stroke="#9a7a3a" stroke-width="4"/>
  <text x="120" y="218" text-anchor="middle" font-family="Arial, sans-serif" font-size="18" fill="#f5f0e4">THE GOOD READER</text>
</svg>
